<svg xmlns="http://www.w3.org/2000/svg" viewBox="0 0 48 48" width="96px" height="96px"><path fill="#7B1FA2" d="M13 19L17 29 33 32 29 25z"/><path fill="#9C27B0" d="M25 14L35 42 42 33 31 14z"/><path fill="#4A148C" d="M28.918 24.969L26.465 24.05 15.743 25.857 16.626 28.066 31.023 30.865zM31 14L25 14 32.262 16.178zM30.242 28.677L31.023 30.865 42 33 42 33z"/><g><path fill="#CE93D8" d="M6 26L20 42 35 42 42 33zM31 6L31 14 42 14z"/></g><g><path fill="#BA68C8" d="M20 42L42 33 35 42zM31 6L25 14 31 14z"/></g></svg>